HIERARCHY
ROOT Hips
{
    OFFSET   0.000000   0.000000   0.000000
    CHANNELS 6 Xposition Yposition Zposition Zrotation Xrotation Yrotation
    JOINT Chest
    {
        OFFSET   0.000000   8.007230   0.000000
        CHANNELS 3 Zrotation Xrotation Yrotation
        JOINT Chest2
        {
            OFFSET   0.000000  22.077100   0.000000
            CHANNELS 3 Zrotation Xrotation Yrotation
            JOINT Neck
            {
                OFFSET   0.000000  23.254800   0.000000
                CHANNELS 3 Zrotation Xrotation Yrotation
                JOINT Head
                {
                    OFFSET   0.000010  14.370000   1.956600
                    CHANNELS 3 Zrotation Xrotation Yrotation
                    End Site
                    {
                        OFFSET   0.000000  19.566000   0.000000
                    }
                }
            }
            JOINT LeftCollar
            {
                OFFSET   3.911900  19.017000  -0.467062
                CHANNELS 3 Zrotation Xrotation Yrotation
                JOINT LeftShoulder
                {
                    OFFSET  10.383700   0.000000   0.000000
                    CHANNELS 3 Zrotation Xrotation Yrotation
                    JOINT LeftElbow
                    {
                        OFFSET  26.662100   0.001193   0.000835
                        CHANNELS 3 Zrotation Xrotation Yrotation
                        JOINT LeftWrist
                        {
                            OFFSET  28.869000  -0.000058  -0.000075
                            CHANNELS 3 Zrotation Xrotation Yrotation
                            JOINT LeftFinger0
                            {
                                OFFSET   2.044660  -2.323460   3.252850
                                CHANNELS 3 Zrotation Xrotation Yrotation
                                JOINT LeftFinger01
                                {
                                    OFFSET   3.088130   0.000000   0.000000
                                    CHANNELS 3 Zrotation Xrotation Yrotation
                                    JOINT LeftFinger02
                                    {
                                        OFFSET   2.639450   0.000000   0.000000
                                        CHANNELS 3 Zrotation Xrotation Yrotation
                                        End Site
                                        {
                                            OFFSET   2.582190   0.000000   0.000000
                                        }
                                    }
                                }
                            }
                            JOINT LeftFinger1
                            {
                                OFFSET   8.364480   0.000000   3.252850
                                CHANNELS 3 Zrotation Xrotation Yrotation
                                JOINT LeftFinger11
                                {
                                    OFFSET   4.646920   0.000000   0.000000
                                    CHANNELS 3 Zrotation Xrotation Yrotation
                                    JOINT LeftFinger12
                                    {
                                        OFFSET   2.323460   0.000000   0.000000
                                        CHANNELS 3 Zrotation Xrotation Yrotation
                                        End Site
                                        {
                                            OFFSET   2.273050   0.000000   0.000000
                                        }
                                    }
                                }
                            }
                            JOINT LeftFinger2
                            {
                                OFFSET   8.364490   0.000016   1.078090
                                CHANNELS 3 Zrotation Xrotation Yrotation
                                JOINT LeftFinger21
                                {
                                    OFFSET   5.111620   0.000000   0.000000
                                    CHANNELS 3 Zrotation Xrotation Yrotation
                                    JOINT LeftFinger22
                                    {
                                        OFFSET   2.788150   0.000012   0.000000
                                        CHANNELS 3 Zrotation Xrotation Yrotation
                                        End Site
                                        {
                                            OFFSET   2.727660   0.000000   0.000000
                                        }
                                    }
                                }
                            }
                            JOINT LeftFinger3
                            {
                                OFFSET   7.899780   0.000014  -1.078090
                                CHANNELS 3 Zrotation Xrotation Yrotation
                                JOINT LeftFinger31
                                {
                                    OFFSET   4.646930   0.000000   0.000000
                                    CHANNELS 3 Zrotation Xrotation Yrotation
                                    JOINT LeftFinger32
                                    {
                                        OFFSET   2.323470   0.000000   0.000000
                                        CHANNELS 3 Zrotation Xrotation Yrotation
                                        End Site
                                        {
                                            OFFSET   2.273050   0.000000   0.000000
                                        }
                                    }
                                }
                            }
                            JOINT LeftFinger4
                            {
                                OFFSET   7.435090   0.000000  -3.252850
                                CHANNELS 3 Zrotation Xrotation Yrotation
                                JOINT LeftFinger41
                                {
                                    OFFSET   3.717550   0.000000   0.000000
                                    CHANNELS 3 Zrotation Xrotation Yrotation
                                    JOINT LeftFinger42
                                    {
                                        OFFSET   1.858770   0.000000   0.000000
                                        CHANNELS 3 Zrotation Xrotation Yrotation
                                        End Site
                                        {
                                            OFFSET   1.818440   0.000000   0.000000
                                        }
                                    }
                                }
                            }
                        }
                    }
                }
            }
            JOINT RightCollar
            {
                OFFSET  -3.911900  19.017000  -0.467063
                CHANNELS 3 Zrotation Xrotation Yrotation
                JOINT RightShoulder
                {
                    OFFSET -10.383700   0.000023   0.000000
                    CHANNELS 3 Zrotation Xrotation Yrotation
                    JOINT RightElbow
                    {
                        OFFSET -26.662100   0.001246   0.001011
                        CHANNELS 3 Zrotation Xrotation Yrotation
                        JOINT RightWrist
                        {
                            OFFSET -28.869000  -0.000026  -0.000078
                            CHANNELS 3 Zrotation Xrotation Yrotation
                            JOINT RightFinger0
                            {
                                OFFSET  -2.044660  -2.323490   3.252850
                                CHANNELS 3 Zrotation Xrotation Yrotation
                                JOINT RightFinger01
                                {
                                    OFFSET  -3.088130   0.000000   0.000000
                                    CHANNELS 3 Zrotation Xrotation Yrotation
                                    JOINT RightFinger02
                                    {
                                        OFFSET  -2.639460   0.000000   0.000000
                                        CHANNELS 3 Zrotation Xrotation Yrotation
                                        End Site
                                        {
                                            OFFSET  -2.582190   0.000000   0.000000
                                        }
                                    }
                                }
                            }
                            JOINT RightFinger1
                            {
                                OFFSET  -8.364480   0.000000   3.252850
                                CHANNELS 3 Zrotation Xrotation Yrotation
                                JOINT RightFinger11
                                {
                                    OFFSET  -4.646920   0.000000   0.000000
                                    CHANNELS 3 Zrotation Xrotation Yrotation
                                    JOINT RightFinger12
                                    {
                                        OFFSET  -2.323470   0.000000   0.000000
                                        CHANNELS 3 Zrotation Xrotation Yrotation
                                        End Site
                                        {
                                            OFFSET  -2.273050   0.000000   0.000000
                                        }
                                    }
                                }
                            }
                            JOINT RightFinger2
                            {
                                OFFSET  -8.364480   0.000000   1.078090
                                CHANNELS 3 Zrotation Xrotation Yrotation
                                JOINT RightFinger21
                                {
                                    OFFSET  -5.111620   0.000000   0.000000
                                    CHANNELS 3 Zrotation Xrotation Yrotation
                                    JOINT RightFinger22
                                    {
                                        OFFSET  -2.788160   0.000000   0.000000
                                        CHANNELS 3 Zrotation Xrotation Yrotation
                                        End Site
                                        {
                                            OFFSET  -2.727660   0.000000   0.000000
                                        }
                                    }
                                }
                            }
                            JOINT RightFinger3
                            {
                                OFFSET  -7.899780   0.000000  -1.078090
                                CHANNELS 3 Zrotation Xrotation Yrotation
                                JOINT RightFinger31
                                {
                                    OFFSET  -4.646930   0.000000   0.000000
                                    CHANNELS 3 Zrotation Xrotation Yrotation
                                    JOINT RightFinger32
                                    {
                                        OFFSET  -2.323470   0.000000   0.000000
                                        CHANNELS 3 Zrotation Xrotation Yrotation
                                        End Site
                                        {
                                            OFFSET  -2.273050   0.000000   0.000000
                                        }
                                    }
                                }
                            }
                            JOINT RightFinger4
                            {
                                OFFSET  -7.435090   0.000000  -3.252850
                                CHANNELS 3 Zrotation Xrotation Yrotation
                                JOINT RightFinger41
                                {
                                    OFFSET  -3.717550   0.000000   0.000000
                                    CHANNELS 3 Zrotation Xrotation Yrotation
                                    JOINT RightFinger42
                                    {
                                        OFFSET  -1.858760   0.000000   0.000000
                                        CHANNELS 3 Zrotation Xrotation Yrotation
                                        End Site
                                        {
                                            OFFSET  -1.818440   0.000000   0.000000
                                        }
                                    }
                                }
                            }
                        }
                    }
                }
            }
        }
    }
    JOINT LeftHip
    {
        OFFSET   9.783010   0.000000   0.000000
        CHANNELS 3 Zrotation Xrotation Yrotation
        JOINT LeftKnee
        {
            OFFSET   0.000073 -41.789100   0.001749
            CHANNELS 3 Zrotation Xrotation Yrotation
            JOINT LeftAnkle
            {
                OFFSET   0.000111 -41.133200  -0.000179
                CHANNELS 3 Zrotation Xrotation Yrotation
                JOINT LeftToe
                {
                    OFFSET   0.000000  -6.358960  14.674500
                    CHANNELS 3 Zrotation Xrotation Yrotation
                    End Site
                    {
                        OFFSET   0.000000   0.000000   3.913200
                    }
                }
            }
        }
    }
    JOINT RightHip
    {
        OFFSET  -9.783010   0.000000   0.000000
        CHANNELS 3 Zrotation Xrotation Yrotation
        JOINT RightKnee
        {
            OFFSET   0.000424 -41.789200   0.005205
            CHANNELS 3 Zrotation Xrotation Yrotation
            JOINT RightAnkle
            {
                OFFSET   0.000000 -41.133200  -0.000155
                CHANNELS 3 Zrotation Xrotation Yrotation
                JOINT RightToe
                {
                    OFFSET   0.000000  -6.358960  14.674500
                    CHANNELS 3 Zrotation Xrotation Yrotation
                    End Site
                    {
                        OFFSET   0.000000   0.000000   3.913200
                    }
                }
            }
        }
    }
}
MOTION
Frames: 4
Frame Time:   0.016667
  2.802360  89.202800   1.374000 -11.162100 -15.349100 -18.573300   0.924674   9.218020  -0.318485   1.939150  18.429500  -0.805781   3.000710   1.219310  -0.064294   4.940330   2.452400  22.708400  -0.390689  -0.443136  -2.298160 -68.870500  24.608200  -6.969350  -4.548070  -5.351850 -17.196900  22.470300 -13.325400   9.094860  42.473600  39.368200 -70.788400 -32.461400   0.002473   0.003689 -11.230700  -0.002589  -0.001501 -33.742900   6.477640  -9.588660 -28.050500  -0.003034   0.002932 -19.635400  -0.003551   0.003755 -30.364700  -1.349680   2.303140 -45.587900  -0.005910   0.002670 -30.361500  -0.001620  -0.002337 -29.053200  -1.296820   2.333250 -43.619800  -0.004159   0.001884 -29.050700  -0.002468   0.001661 -35.893600  -1.565740   2.162040 -53.884800  -0.000331   0.003839 -35.887300  -0.004740   0.000782   5.228210  -7.147050  -0.432428  16.380000   7.289800  11.531200  -5.954090  -1.990800   0.001618 -11.256800   4.186160 -10.854300 -48.991800  25.662100  48.441600   9.035390  -0.001063  -0.005105  -0.482309  -0.006767  -0.005009   7.581180   0.226840   1.715620   6.208990  -0.000346  -0.001545   4.346310  -0.000161   0.000708   8.761970   0.194922   1.272590   8.766170   0.000603  -0.001851   5.838260   0.000061   0.001264   2.905260   0.064909   1.285780   2.909440   0.000547  -0.005763   1.937680   0.000398  -0.002414  16.467600  -1.696380  -5.736370  24.832600   0.000258   0.004134  16.538500  -0.000000   0.011788   2.670620  22.508300   5.211960   0.948092   0.135726  12.037900  -0.109804  -6.804640   9.207670   0.000000   0.000000   0.000000   4.717230  13.992100  -5.637850  -5.129170  10.081300  -3.080160   4.954740  -6.304980  10.372300  -0.000000   0.000000   0.000000
  2.728910  89.220400   1.329730 -11.198500 -15.286200 -18.676100   0.905631   9.201470  -0.268758   1.893050  18.397400  -0.700928   3.003190   1.168670  -0.061290   4.939430   2.350230  22.531500  -0.398247  -0.423350  -2.298200 -68.883700  24.654200  -7.016740  -4.494290  -5.335550 -17.255600  22.175200 -13.229200   9.047590  42.460400  39.348500 -70.813000 -32.443000   0.002463   0.003699 -11.221500  -0.002587  -0.001495 -33.738200   6.499350  -9.619360 -28.051800  -0.003033   0.002936 -19.636300  -0.003551   0.003751 -30.324500  -1.353330   2.311660 -45.527500  -0.005908   0.002669 -30.321300  -0.001621  -0.002332 -29.032700  -1.300850   2.341530 -43.588700  -0.004155   0.001884 -29.030000  -0.002469   0.001658 -35.889900  -1.571170   2.169490 -53.879300  -0.000333   0.003837 -35.883600  -0.004738   0.000761   5.288470  -7.083820  -0.358396  16.448700   7.278070  11.465800  -6.082150  -1.745550   0.002088 -10.925600   4.176980 -10.840900 -48.985400  25.764800  48.667500   8.687070  -0.000657  -0.005465  -0.656466  -0.007144  -0.004905   7.687400   0.282871   2.089840   6.296050  -0.000435  -0.001800   4.407250  -0.000219   0.000595   8.899680   0.258319   1.644460   8.905850   0.000674  -0.002051   5.931280   0.000000   0.001250   3.068010   0.089858   1.662090   3.072180   0.000615  -0.006154   2.046060   0.000447  -0.002471  16.710200  -1.617110  -5.371550  25.182300   0.000307   0.006577  16.771400  -0.000514   0.012155   2.733980  22.489400   5.272540   0.952977   0.110497  12.047900  -0.095946  -6.805450   9.231890   0.000000   0.000000   0.000000   4.822190  13.992000  -5.619350  -5.147810   9.958980  -3.034080   4.880290  -6.243260  10.377600   0.000000   0.000000  -0.000000
  2.651420  89.236500   1.288080 -11.219600 -15.236400 -18.780600   0.887098   9.181240  -0.219466   1.846680  18.357900  -0.596831   2.987060   1.124880  -0.058654   4.908070   2.262320  22.382500  -0.414249  -0.392819  -2.289350 -68.924300  24.619600  -7.013910  -4.478820  -5.243200 -17.326000  21.869000 -13.087500   8.915350  42.474900  39.334400 -70.763500 -32.418600   0.002465   0.003704 -11.209300  -0.002589  -0.001496 -33.702800   6.480370  -9.604670 -28.020800  -0.003031   0.002939 -19.614600  -0.003551   0.003757 -30.256900  -1.377990   2.360630 -45.427700  -0.005908   0.002672 -30.254800  -0.001619  -0.002335 -28.993900  -1.325830   2.390270 -43.528400  -0.004155   0.001885 -28.989800  -0.002469   0.001658 -35.860900  -1.602280   2.214550 -53.837600  -0.000333   0.003838 -35.855900  -0.004739   0.000749   5.350760  -6.998690  -0.273193  16.646700   6.993310  11.351800  -6.303730  -1.595860   0.008141 -10.733700   4.743610 -10.625400 -49.257500  26.357100  49.487600   8.211460  -0.000282  -0.005832  -0.894265  -0.007525  -0.004812   7.698510   0.356483   2.627420   6.305520  -0.000497  -0.002057   4.413860  -0.000260   0.000484   8.974090   0.346550   2.180530   8.981960   0.000737  -0.002256   5.981970  -0.000052   0.001233   3.101640   0.122893   2.204690   3.105170   0.000666  -0.006543   2.068030   0.000485  -0.002517  16.923700  -1.477290  -4.861450  25.481600   0.000305   0.008821  16.970700  -0.001039   0.012518   2.789590  22.474400   5.291430   0.953902   0.093440  12.069500  -0.094147  -6.804310   9.267230  -0.000000   0.000000   0.000000   4.929900  14.008800  -5.581680  -5.171700   9.822610  -3.014390   4.793190  -6.182650  10.357800   0.000000   0.000000   0.000000
  2.575870  89.249600   1.249070 -11.223300 -15.192400 -18.839500   0.870704   9.159540  -0.176197   1.805730  18.315200  -0.505383   2.951650   1.087740  -0.056096   4.854000   2.188110  22.245200  -0.439055  -0.373063  -2.269360 -68.978900  24.561700  -7.004520  -4.454350  -5.086320 -17.388600  21.567200 -12.948900   8.760220  42.485700  39.303200 -70.658000 -32.402800   0.002467   0.003707 -11.201400  -0.002591  -0.001497 -33.647700   6.433840  -9.556910 -27.970300  -0.003029   0.002942 -19.579200  -0.003549   0.003763 -30.177000  -1.419430   2.438750 -45.310700  -0.005909   0.002675 -30.176900  -0.001616  -0.002338 -28.942700  -1.366560   2.468750 -43.455200  -0.004155   0.001886 -28.941100  -0.002468   0.001659 -35.807900  -1.651910   2.287730 -53.761100  -0.000332   0.003840 -35.804900  -0.004740   0.000711   5.406050  -6.913000  -0.188136  16.852800   6.719680  11.244000  -6.450550  -1.424440   0.048723 -10.568500   5.738060 -10.281500 -49.512500  26.796800  50.234900   7.777550   0.000065  -0.006211  -1.111220  -0.007903  -0.004726   7.701430   0.423395   3.130220   6.312200  -0.000717  -0.002315   4.418530  -0.000408   0.000372   8.994260   0.424225   2.680220   9.005750   0.000769  -0.002466   5.997820  -0.000250   0.001208   3.117260   0.147316   2.710320   3.122220   0.000688  -0.006932   2.079390   0.000502  -0.002554  17.095900  -1.359790  -4.406450  25.724900   0.000288   0.011068  17.132800  -0.001578   0.012874   2.821940  22.455200   5.293480   0.951203   0.077951  12.094600  -0.103180  -6.800230   9.310660  -0.000000   0.000000   0.000000   5.025780  14.025600  -5.536520  -5.192440   9.679830  -2.994010   4.701030  -6.123860  10.289100   0.000000   0.000000   0.000000
